<svg width="22" height="19" viewBox="0 0 22 19" fill="none" xmlns="http://www.w3.org/2000/svg">
<path d="M8.16039 9.42772L9.32273 10.5901C9.5207 10.788 9.84167 10.788 10.0396 10.5901L12.7228 7.90693M5.68911 17.4752H5.18218C3.78233 17.4752 2.64752 16.3404 2.64752 14.9406V9.87129C2.64752 9.09045 1 8.73069 1 8.73069C1 8.73069 2.64752 8.43001 2.64752 7.5901V3.53465C2.64752 2.1348 3.78233 1 5.18218 1H5.68911M15.5109 1H16.0178C17.4177 1 18.5525 2.1348 18.5525 3.53465V8.60396C18.5525 9.38479 20.2 9.74456 20.2 9.74456C20.2 9.74456 18.5525 10.0452 18.5525 10.8851L18.5525 14.9406C18.5525 16.3404 17.4177 17.4752 16.0178 17.4752H15.5109" stroke="black" stroke-width="2" stroke-linecap="round" stroke-linejoin="round"/>
</svg>